<mxfile><diagram id="H1SSWATA6ZZVt--nnhAP" name="Page-1"><mxGraphModel dx="576" dy="457" grid="1" gridSize="10" guides="1" tooltips="1" connect="1" arrows="1" fold="1" page="1" pageScale="1" pageWidth="827" pageHeight="1169" background="#f4f4f5" math="0" shadow="0"><root><mxCell id="0"/><mxCell id="1" parent="0"/><mxCell id="40" style="edgeStyle=none;html=1;entryX=0.5;entryY=0;entryDx=0;entryDy=0;fontFamily=Times New Roman;fontColor=#FFFFFF;" edge="1" parent="1" source="41" target="50"><mxGeometry relative="1" as="geometry"/></mxCell><mxCell id="41" value="Firebase&amp;nbsp;&lt;br&gt;Auth" style="shape=parallelogram;perimeter=parallelogramPerimeter;whiteSpace=wrap;html=1;fixedSize=1;fontFamily=Times New Roman;fillColor=#76608a;fontColor=#ffffff;strokeColor=#432D57;" vertex="1" parent="1"><mxGeometry x="370" y="100" width="120" height="55" as="geometry"/></mxCell><mxCell id="42" style="edgeStyle=none;html=1;exitX=0.5;exitY=1;exitDx=0;exitDy=0;entryX=0;entryY=0.5;entryDx=0;entryDy=0;fontColor=#10e53b;" edge="1" parent="1" source="43" target="55"><mxGeometry relative="1" as="geometry"/></mxCell><mxCell id="43" value="" style="rounded=0;whiteSpace=wrap;html=1;fontFamily=Times New Roman;fontColor=#ffffff;fillColor=#647687;strokeColor=#314354;" vertex="1" parent="1"><mxGeometry x="60" y="60" width="200" height="150" as="geometry"/></mxCell><mxCell id="44" style="edgeStyle=none;html=1;exitX=1;exitY=0.5;exitDx=0;exitDy=0;entryX=0;entryY=0.25;entryDx=0;entryDy=0;" edge="1" parent="1" source="45" target="41"><mxGeometry relative="1" as="geometry"/></mxCell><mxCell id="45" value="Singup/Signin" style="rounded=1;whiteSpace=wrap;html=1;fontFamily=Times New Roman;fillColor=#a0522d;fontColor=#ffffff;strokeColor=#6D1F00;" vertex="1" parent="1"><mxGeometry x="130" y="140" width="120" height="50" as="geometry"/></mxCell><mxCell id="46" value="&lt;h2&gt;&lt;span style=&quot;background-color: initial;&quot;&gt;&lt;font face=&quot;Times New Roman&quot;&gt;Web client(Frontend)&lt;/font&gt;&lt;/span&gt;&lt;/h2&gt;&lt;h2&gt;&lt;font color=&quot;#75f584&quot; style=&quot;font-size: 10px;&quot;&gt;React, Vanilla js&lt;/font&gt;&lt;/h2&gt;" style="text;html=1;spacing=5;spacingTop=-20;whiteSpace=wrap;overflow=hidden;rounded=0;fontColor=#20b131;" vertex="1" parent="1"><mxGeometry x="80" y="60" width="140" height="100" as="geometry"/></mxCell><mxCell id="47" value="Signin/SignUp&lt;br&gt;Request" style="text;html=1;strokeColor=none;fillColor=none;align=center;verticalAlign=middle;whiteSpace=wrap;rounded=0;fontFamily=Times New Roman;" vertex="1" parent="1"><mxGeometry x="290" y="110" width="60" height="30" as="geometry"/></mxCell><mxCell id="48" style="edgeStyle=none;html=1;exitX=0.5;exitY=1;exitDx=0;exitDy=0;entryX=0.592;entryY=-0.067;entryDx=0;entryDy=0;entryPerimeter=0;fontColor=#10e53b;" edge="1" parent="1" source="50" target="52"><mxGeometry relative="1" as="geometry"/></mxCell><mxCell id="49" style="edgeStyle=none;html=1;exitX=0;exitY=0.5;exitDx=0;exitDy=0;entryX=1;entryY=0.927;entryDx=0;entryDy=0;entryPerimeter=0;fontColor=#10e53b;" edge="1" parent="1" source="50" target="43"><mxGeometry relative="1" as="geometry"/></mxCell><mxCell id="50" value="DETAILS&lt;br&gt;&lt;br&gt;ID TOKEN" style="rounded=1;whiteSpace=wrap;html=1;fontFamily=Times New Roman;fontColor=#ffffff;fillColor=#6d8764;strokeColor=#3A5431;" vertex="1" parent="1"><mxGeometry x="370" y="190" width="110" height="50" as="geometry"/></mxCell><mxCell id="51" style="edgeStyle=none;html=1;entryX=1;entryY=0.5;entryDx=0;entryDy=0;fontColor=#10e53b;" edge="1" parent="1" source="52" target="55"><mxGeometry relative="1" as="geometry"/></mxCell><mxCell id="52" value="&lt;font color=&quot;#10e53b&quot;&gt;Postman/Insomnia&lt;br&gt;client&lt;/font&gt;" style="rounded=1;whiteSpace=wrap;html=1;fillColor=#647687;fontColor=#ffffff;strokeColor=#314354;" vertex="1" parent="1"><mxGeometry x="354" y="270" width="120" height="60" as="geometry"/></mxCell><mxCell id="53" value="" style="edgeStyle=none;html=1;fontColor=#10e53b;" edge="1" parent="1" source="55" target="58"><mxGeometry relative="1" as="geometry"/></mxCell><mxCell id="55" value="Go Server&lt;br&gt;(Verify token)" style="shape=hexagon;perimeter=hexagonPerimeter2;whiteSpace=wrap;html=1;fixedSize=1;fontColor=#ffffff;fillColor=#76608a;strokeColor=#432D57;" vertex="1" parent="1"><mxGeometry x="200" y="230" width="120" height="80" as="geometry"/></mxCell><mxCell id="61" style="edgeStyle=none;html=1;exitX=0;exitY=1;exitDx=0;exitDy=0;entryX=0.855;entryY=0;entryDx=0;entryDy=4.35;entryPerimeter=0;" edge="1" parent="1" source="58" target="59"><mxGeometry relative="1" as="geometry"/></mxCell><mxCell id="62" style="edgeStyle=none;html=1;exitX=1;exitY=1;exitDx=0;exitDy=0;" edge="1" parent="1" source="58" target="60"><mxGeometry relative="1" as="geometry"/></mxCell><mxCell id="58" value="Authorize" style="ellipse;whiteSpace=wrap;html=1;fontColor=#ffffff;fillColor=#a0522d;strokeColor=#6D1F00;" vertex="1" parent="1"><mxGeometry x="190" y="330" width="120" height="80" as="geometry"/></mxCell><mxCell id="59" value="user&lt;br&gt;resources" style="shape=cylinder3;whiteSpace=wrap;html=1;boundedLbl=1;backgroundOutline=1;size=15;fontColor=#ffffff;fillColor=#647687;strokeColor=#314354;" vertex="1" parent="1"><mxGeometry x="150" y="420" width="60" height="80" as="geometry"/></mxCell><mxCell id="60" value="admin&lt;br&gt;resources" style="shape=cylinder3;whiteSpace=wrap;html=1;boundedLbl=1;backgroundOutline=1;size=15;fontColor=#ffffff;fillColor=#647687;strokeColor=#314354;" vertex="1" parent="1"><mxGeometry x="300" y="420" width="60" height="80" as="geometry"/></mxCell></root></mxGraphModel></diagram></mxfile>